<svg width="438" height="408" xmlns="http://www.w3.org/2000/svg" xmlns:xlink="http://www.w3.org/1999/xlink" overflow="hidden"><defs><clipPath id="clip0"><rect x="0" y="152" width="438" height="408"/></clipPath></defs><g clip-path="url(#clip0)" transform="matrix(1 0 0 1 0 -152)"><path d="M404.664 207.336C404.664 308.748 322.453 390.959 221.041 390.959 119.628 390.959 37.4172 308.748 37.4172 207.336 37.4172 105.923 119.628 23.7123 221.041 23.7123 322.453 23.7123 404.664 105.923 404.664 207.336Z" fill="#00CE7C" fill-rule="nonzero" fill-opacity="1" transform="matrix(1 0 0 1.0013 0 151.996)"/><path d="M222.921 165.578 258.168 165.578C259.183 165.587 259.999 166.416 259.991 167.432 259.988 167.811 259.868 168.18 259.647 168.488L208.338 245.893C207.916 246.723 206.645 246.101 206.859 245.271L219.527 185.296 185.759 185.296C184.74 185.28 183.927 184.442 183.942 183.423 183.948 183.051 184.066 182.69 184.28 182.386L234.981 107.469C235.188 106.847 236.46 107.269 236.245 108.305Z" fill="#1E2026" fill-rule="evenodd" fill-opacity="1" transform="matrix(1 0 0 1.0013 0 151.996)"/><path d="M178.806 304.521C176.344 304.977 174.557 307.124 174.556 309.628L174.556 332.587C174.558 335.458 176.887 337.783 179.757 337.78 180.071 337.78 180.384 337.752 180.693 337.695L265.459 322.062 265.459 334.149 178.779 350.612C175.974 351.221 174.194 353.989 174.804 356.794 175.391 359.496 177.992 361.266 180.721 360.82L271.624 343.542C274.074 343.077 275.847 340.935 275.846 338.441L275.846 315.8C275.844 312.93 273.515 310.605 270.645 310.607 270.331 310.607 270.018 310.636 269.709 310.693L184.944 326.347 184.944 313.955 271.61 297.955C274.072 297.499 275.859 295.352 275.86 292.848 275.86 267.436 284.886 242.251 302.054 219.88L302.918 218.767C316.997 200.902 324.621 178.801 324.55 156.055 324.55 95.1948 271.603 47.549 210.239 54.4602 164.777 59.4363 127.083 95.6924 120.51 140.712 115.949 171.944 125.563 202.844 146.891 225.637L147.644 226.425C164.231 243.758 174.466 264.754 177.127 286.552 177.474 289.397 180.063 291.423 182.908 291.075 185.754 290.728 187.779 288.14 187.432 285.294 184.55 261.658 173.609 238.989 156.082 220.253L155.149 219.271C135.508 198.724 126.634 170.672 130.787 142.232 136.676 101.906 170.61 69.2778 211.372 64.7648 266.572 58.6 314.148 101.394 314.148 156.075 314.22 176.1 307.639 195.582 295.44 211.462L294.749 212.381C276.904 235.188 266.876 260.925 265.611 287.195L265.556 288.529Z" fill="#FFFFFF" fill-rule="nonzero" fill-opacity="1" transform="matrix(1 0 0 1.0013 0 151.996)"/><path d="M653.412 298.764C657.095 298.775 660.09 295.799 660.102 292.115 660.113 288.432 657.137 285.437 653.453 285.425 649.77 285.414 646.775 288.391 646.763 292.074 646.763 292.081 646.763 292.088 646.763 292.095 646.786 295.761 649.746 298.73 653.412 298.764Z" fill="#1E2026" fill-rule="nonzero" fill-opacity="1" transform="matrix(1 0 0 1.0013 0 151.996)"/><path d="M1223.77 326.741 1222.03 326.36C1216.2 325.027 1211.3 323.693 1211.3 319.898 1211.3 316.408 1214.88 314.369 1220.5 314.369 1226.63 314.369 1232.16 316.934 1235.12 320.32L1239.62 312.718C1235.12 308.716 1228.78 305.737 1220.4 305.737 1207.96 305.737 1200.97 312.718 1200.97 320.818 1200.97 330.777 1209.14 333.61 1216.95 335.421L1220.55 336.223C1226.16 337.515 1230.83 339.112 1230.83 343.189 1230.83 346.88 1227.55 349.243 1221.11 349.243 1214.67 349.243 1207.82 345.857 1204.34 342.263L1199.44 350.059C1204.55 355.09 1212.22 357.758 1220.6 357.758 1233.89 357.758 1241.15 351.089 1241.15 342.367 1241.15 331.447 1231.98 328.579 1223.77 326.741Z" fill="#1E2026" fill-rule="nonzero" fill-opacity="1" transform="matrix(1 0 0 1.0013 0 151.996)"/><path d="M1190.96 306.968 1177.66 306.968 1155.88 330.873 1155.88 288.093 1145.15 288.093 1145.15 356.528 1155.88 356.528 1155.88 343.189 1162.74 336.105 1177.87 356.528 1191.37 356.528 1170.4 329.436 1190.96 306.968Z" fill="#1E2026" fill-rule="nonzero" fill-opacity="1" transform="matrix(1 0 0 1.0013 0 151.996)"/><path d="M1114.59 314.252 1114.59 306.968 1103.85 306.968 1103.85 356.528 1114.59 356.528 1114.59 322.753C1116.73 319.297 1122.76 316.187 1127.26 316.187 1128.4 316.168 1129.53 316.272 1130.64 316.498L1130.64 305.841C1124.2 305.841 1118.27 309.532 1114.59 314.252Z" fill="#1E2026" fill-rule="nonzero" fill-opacity="1" transform="matrix(1 0 0 1.0013 0 151.996)"/><path d="M1061.73 305.737C1046.09 305.737 1036.38 317.535 1036.38 331.696 1036.38 345.857 1046.05 357.758 1061.73 357.758 1077.58 357.758 1087.19 345.961 1087.19 331.696 1087.19 317.431 1077.58 305.737 1061.73 305.737ZM1061.73 348.214C1052.63 348.214 1047.52 340.521 1047.52 331.696 1047.52 322.87 1052.63 315.282 1061.73 315.282 1070.83 315.282 1076.07 322.974 1076.07 331.696 1076.07 340.418 1070.93 348.214 1061.73 348.214Z" fill="#1E2026" fill-rule="nonzero" fill-opacity="1" transform="matrix(1 0 0 1.0013 0 151.996)"/><path d="M1003.46 340.826 989.351 288.093 979.841 288.093 965.729 340.826 952.439 288.093 939.045 288.093 958.576 356.528 971.354 356.528 984.541 306.048 997.838 356.528 1010.62 356.528 1030.04 288.093 1016.65 288.093 1003.46 340.826Z" fill="#1E2026" fill-rule="nonzero" fill-opacity="1" transform="matrix(1 0 0 1.0013 0 151.996)"/><path d="M877.507 326.36 876.028 326.015C870.873 324.778 866.767 323.368 866.767 319.898 866.767 316.429 870.347 314.369 875.973 314.369 882.103 314.369 887.625 316.934 890.59 320.32L895.089 312.718C890.59 308.716 884.253 305.737 875.869 305.737 863.429 305.737 856.442 312.718 856.442 320.818 856.442 330.777 864.611 333.61 872.421 335.421L876.021 336.223C881.633 337.515 886.298 339.112 886.298 343.189 886.298 346.88 883.029 349.243 876.581 349.243 870.133 349.243 863.291 345.857 859.815 342.263L854.908 350.059C860.022 355.09 867.687 357.758 876.077 357.758 889.367 357.758 896.624 351.089 896.624 342.367 896.624 330.673 886.091 328.206 877.507 326.36Z" fill="#1E2026" fill-rule="nonzero" fill-opacity="1" transform="matrix(1 0 0 1.0013 0 151.996)"/><path d="M823.42 326.36 821.948 326.015C816.792 324.778 812.687 323.368 812.687 319.898 812.687 316.429 816.267 314.369 821.893 314.369 828.023 314.369 833.545 316.934 836.51 320.32L841.009 312.718C836.51 308.716 830.173 305.737 821.789 305.737 809.349 305.737 802.362 312.718 802.362 320.818 802.362 330.777 810.531 333.61 818.341 335.421L821.941 336.223C827.553 337.515 832.218 339.112 832.218 343.189 832.218 346.88 828.942 349.243 822.501 349.243 816.06 349.243 809.211 345.857 805.735 342.263L800.828 350.059C805.942 355.09 813.606 357.758 821.99 357.758 835.287 357.758 842.544 351.089 842.544 342.367 842.544 330.673 832.011 328.206 823.42 326.36Z" fill="#1E2026" fill-rule="nonzero" fill-opacity="1" transform="matrix(1 0 0 1.0013 0 151.996)"/><path d="M764.33 305.737C749.712 305.737 739.283 317.334 739.283 331.696 739.283 347.391 750.341 357.758 765.152 357.758 773.024 357.758 780.281 355.298 785.195 350.577L780.274 343.486C776.818 346.976 771.075 348.925 766.265 348.925 756.962 348.925 751.344 342.768 750.521 335.283L788.657 335.283 788.657 332.719C788.664 317.127 779.154 305.737 764.33 305.737ZM750.424 327.694C750.936 321.64 755.131 314.563 764.33 314.563 774.047 314.563 778.035 321.847 778.235 327.694Z" fill="#1E2026" fill-rule="nonzero" fill-opacity="1" transform="matrix(1 0 0 1.0013 0 151.996)"/><path d="M706.67 305.737C699.994 305.806 693.667 308.729 689.288 313.768L689.288 306.995 678.555 306.995 678.555 356.555 689.288 356.555 689.288 321.999C691.748 318.613 696.448 315.33 701.97 315.33 708.003 315.33 711.888 317.894 711.888 325.586L711.888 356.576 722.621 356.576 722.621 321.64C722.621 311.481 717.306 305.737 706.67 305.737Z" fill="#1E2026" fill-rule="nonzero" fill-opacity="1" transform="matrix(1 0 0 1.0013 0 151.996)"/><path d="M648.09 306.968 658.823 306.968 658.823 356.528 648.09 356.528Z" fill="#1E2026" fill-rule="nonzero" fill-opacity="1" transform="matrix(1 0 0 1.0013 0 151.996)"/><path d="M612.332 326.36 610.86 326.015C605.697 324.778 601.599 323.368 601.599 319.898 601.599 316.429 605.179 314.369 610.797 314.369 616.935 314.369 622.457 316.934 625.422 320.32L629.921 312.718C625.422 308.716 619.084 305.737 610.694 305.737 598.254 305.737 591.273 312.718 591.273 320.818 591.273 330.777 599.442 333.61 607.252 335.421L610.853 336.223C616.458 337.515 621.123 339.112 621.123 343.189 621.123 346.88 617.854 349.243 611.413 349.243 604.971 349.243 598.122 345.857 594.646 342.263L589.739 350.059C594.846 355.09 602.518 357.758 610.901 357.758 624.191 357.758 631.455 351.089 631.455 342.367 631.434 330.673 620.902 328.206 612.332 326.36Z" fill="#1E2026" fill-rule="nonzero" fill-opacity="1" transform="matrix(1 0 0 1.0013 0 151.996)"/><path d="M563.546 341.752C560.523 345.721 555.859 348.1 550.87 348.214 544.837 348.214 540.953 345.857 540.953 338.158L540.953 306.968 530.22 306.968 530.22 342.056C530.22 352.215 535.431 357.758 546.067 357.758 552.732 357.741 559.08 354.909 563.546 349.962L563.546 356.528 574.32 356.528 574.32 306.968 563.546 306.968Z" fill="#1E2026" fill-rule="nonzero" fill-opacity="1" transform="matrix(1 0 0 1.0013 0 151.996)"/><path d="M499.548 321.232C505.899 319.898 511.428 314.148 511.428 305.53 511.428 295.889 504.476 288.093 492.001 288.093L458.447 288.093 458.447 356.514 492.899 356.514C505.685 356.514 512.735 348.614 512.735 338.04 512.735 329.664 506.805 322.359 499.548 321.232ZM470.41 298.66 489.527 298.66C495.664 298.66 499.14 302.455 499.14 307.583 499.14 312.711 495.685 316.408 489.527 316.408L470.41 316.408ZM490.038 345.961 470.41 345.961 470.41 326.975 490.038 326.975C496.887 326.975 500.467 331.288 500.467 336.416 500.467 342.367 496.583 345.961 490.038 345.961Z" fill="#1E2026" fill-rule="nonzero" fill-opacity="1" transform="matrix(1 0 0 1.0013 0 151.996)"/><path d="M1239.71 231.988 1175.81 152.115C1175.77 152.068 1175.77 152.003 1175.81 151.956L1234.49 82.7132C1236.82 79.965 1236.47 75.8529 1233.72 73.5283 1232.55 72.5331 1231.06 71.987 1229.52 71.987L1201.93 71.987C1199.94 71.9896 1198.06 72.8975 1196.82 74.4543L1138.6 147.9C1138.56 147.953 1138.48 147.961 1138.42 147.918 1138.39 147.895 1138.38 147.86 1138.38 147.824L1138.38 78.4973C1138.37 74.9034 1135.46 71.9908 1131.87 71.987L1108.56 71.987C1104.96 71.9908 1102.05 74.9034 1102.05 78.4973L1102.05 236.073C1102.05 239.668 1104.96 242.583 1108.56 242.583L1131.87 242.583C1135.47 242.583 1138.38 239.668 1138.38 236.073L1138.38 190.189C1138.38 190.16 1138.38 190.129 1138.38 190.099L1151.56 174.397C1151.61 174.344 1151.7 174.34 1151.75 174.389 1151.75 174.392 1151.75 174.394 1151.76 174.397L1201.41 239.97C1202.64 241.599 1204.56 242.555 1206.6 242.555L1234.6 242.555C1238.19 242.572 1241.12 239.674 1241.14 236.082 1241.14 234.594 1240.64 233.149 1239.71 231.988Z" fill="#1E2026" fill-rule="nonzero" fill-opacity="1" transform="matrix(1 0 0 1.0013 0 151.996)"/><path d="M1074.65 126.972C1074.65 95.2639 1052.89 71.987 1017.29 71.987L943.986 71.987C940.387 71.9832 937.466 74.8979 937.462 78.4973L937.462 236.073C937.466 239.672 940.387 242.587 943.986 242.583L967.291 242.583C970.887 242.583 973.804 239.669 973.808 236.073L973.808 181.571C973.808 181.502 973.864 181.446 973.932 181.446L1000.35 181.446C1000.4 181.444 1000.44 181.468 1000.46 181.509L1032.1 239.183C1033.24 241.268 1035.43 242.563 1037.81 242.562L1064.25 242.562C1067.85 242.566 1070.77 239.653 1070.77 236.058 1070.77 234.891 1070.46 233.746 1069.87 232.741L1037.38 177.749C1037.35 177.699 1037.36 177.63 1037.41 177.595 1037.42 177.586 1037.44 177.579 1037.45 177.576 1055.82 173.174 1074.65 157.064 1074.65 126.972ZM1011.94 150.242 973.932 150.242C973.866 150.243 973.812 150.191 973.808 150.125L973.808 103.309C973.808 103.244 973.86 103.191 973.925 103.191 973.928 103.191 973.93 103.191 973.932 103.191L1011.94 103.191C1026.53 103.191 1037.52 112.397 1037.52 126.689 1037.52 140.981 1026.53 150.242 1011.94 150.242Z" fill="#1E2026" fill-rule="nonzero" fill-opacity="1" transform="matrix(1 0 0 1.0013 0 151.996)"/><path d="M857.43 76.1614C856.452 73.657 854.037 72.0101 851.348 72.0146L814.719 72.0146C812.033 72.011 809.62 73.6581 808.644 76.1614L747.66 233.737C746.37 237.093 748.045 240.859 751.401 242.149 752.146 242.436 752.937 242.583 753.735 242.583L779.583 242.583C782.32 242.584 784.766 240.875 785.706 238.305L794.863 213.259C794.877 213.206 794.927 213.171 794.981 213.176L871.08 213.176C871.132 213.174 871.178 213.209 871.191 213.259L880.348 238.305C881.288 240.875 883.734 242.584 886.471 242.583L912.091 242.583C915.687 242.587 918.605 239.676 918.609 236.08 918.61 235.277 918.462 234.48 918.173 233.73ZM861.024 181.702 804.809 181.702C804.74 181.702 804.684 181.647 804.684 181.578 804.684 181.564 804.686 181.55 804.691 181.536L832.923 103.758C832.946 103.693 833.017 103.659 833.082 103.681 833.117 103.694 833.146 103.722 833.158 103.758L861.135 181.536C861.154 181.606 861.114 181.679 861.044 181.698 861.037 181.7 861.031 181.701 861.024 181.702Z" fill="#1E2026" fill-rule="nonzero" fill-opacity="1" transform="matrix(1 0 0 1.0013 0 151.996)"/><path d="M701.486 71.987 628.158 71.987C624.561 71.987 621.642 74.8995 621.634 78.4973L621.634 236.073C621.638 239.672 624.559 242.587 628.158 242.583L651.463 242.583C655.06 242.583 657.976 239.669 657.98 236.073L657.98 181.571C657.98 181.502 658.036 181.446 658.105 181.446L701.486 181.446C738.337 181.446 758.849 156.635 758.849 126.972 758.849 97.0539 738.599 71.987 701.486 71.987ZM696.317 150.242 658.098 150.242C658.032 150.243 657.977 150.191 657.973 150.125L657.973 103.309C657.973 103.244 658.026 103.191 658.091 103.191 658.093 103.191 658.095 103.191 658.098 103.191L696.648 103.191C709.476 103.191 719.455 110.793 721.384 122.453 723.816 137.187 711.272 150.242 696.324 150.242Z" fill="#1E2026" fill-rule="nonzero" fill-opacity="1" transform="matrix(1 0 0 1.0013 0 151.996)"/><path d="M533.081 138.224 529.218 137.319C511.532 133.103 499.043 129.274 499.043 118.534 499.043 108.305 507.745 101.138 524.124 101.138 538.845 101.138 554.955 105.748 568.052 115.652 570.902 117.808 574.96 117.249 577.119 114.401L589.525 98.139C591.686 95.2552 591.125 91.1695 588.267 88.9747 572.026 76.1475 551.251 69.4506 526.709 69.4506 486.527 69.4506 461.958 92.4718 461.958 120.856 461.958 158.957 497.793 166.636 525.686 173.022L528.72 173.713C546.897 178.081 560.235 182.608 560.235 194.737 560.235 204.454 550.511 213.915 530.517 213.915 512.514 213.981 495.092 207.552 481.448 195.808 478.743 193.45 474.64 193.731 472.282 196.435 472.153 196.582 472.032 196.735 471.917 196.893L459.663 213.86C457.677 216.659 458.173 220.515 460.804 222.72 476.7 236.543 498.898 245.624 528.727 245.624 574.79 245.624 597.058 222.126 597.058 190.894 597.065 153.055 561.237 144.624 533.081 138.224Z" fill="#1E2026" fill-rule="nonzero" fill-opacity="1" transform="matrix(1 0 0 1.0013 0 151.996)"/></g></svg>